<svg xmlns="http://www.w3.org/2000/svg" viewBox="0 0 134.41 164.64"><defs><style>.cls-1{fill:#b8e45c;}</style></defs><g id="Layer_2" data-name="Layer 2"><g id="OBJECTS"><path d="M43.28,97.44H38.94a96.94,96.94,0,0,0-26.07,37.11c.64.93,1.29,1.84,2,2.73A94.1,94.1,0,0,1,43.28,97.44Zm-14.43,0H24.51a97.45,97.45,0,0,0-19,22.84c.42,1.12.86,2.22,1.33,3.31A94.35,94.35,0,0,1,28.85,97.44Zm28.85,0H53.37a96.57,96.57,0,0,0-29.91,49.14q1.17,1,2.4,2A93.86,93.86,0,0,1,57.7,97.44Zm24.52,0a96.36,96.36,0,0,0-32.33,63.48q1.36.38,2.76.69A93.63,93.63,0,0,1,86.56,97.44Zm-10.09,0H67.8a96.46,96.46,0,0,0-31.68,58c.87.47,1.76.92,2.65,1.35A93.73,93.73,0,0,1,72.13,97.44Z"/><path d="M75.64,108c-.63.72-1.26,1.45-1.87,2.18A85.88,85.88,0,0,1,110,147.43c.74-.63,1.46-1.28,2.17-1.94A88.68,88.68,0,0,0,75.64,108Z"/><path d="M68.67,117c-.53.78-1.06,1.56-1.57,2.35A86,86,0,0,1,100.84,154c.81-.48,1.61-1,2.39-1.5A88.75,88.75,0,0,0,68.67,117Z"/><path d="M62.84,126.67c-.43.84-.85,1.68-1.26,2.53a85.93,85.93,0,0,1,29.14,29.7c.89-.34,1.76-.7,2.63-1.07A88.65,88.65,0,0,0,62.84,126.67Z"/><path d="M58.15,137.22c-.33.91-.66,1.82-1,2.74a86,86,0,0,1,22.09,22.16c1-.18,2-.39,3-.62A88.78,88.78,0,0,0,58.15,137.22Z"/><path d="M119.7,97.44h-4.11a85.79,85.79,0,0,1,15,17.8c.34-1.23.65-2.47.92-3.73A88.25,88.25,0,0,0,119.7,97.44Z"/><path d="M54.65,148.93c-.23,1-.46,2-.66,3.08a84.77,84.77,0,0,1,11.53,11.2c.56,0,1.12,0,1.68,0s1.32,0,2,0A89.1,89.1,0,0,0,54.65,148.93Z"/><path d="M83.88,99.74c-.75.66-1.48,1.33-2.21,2a85.81,85.81,0,0,1,36.49,37.3c.66-.8,1.3-1.62,1.91-2.45A88.73,88.73,0,0,0,83.88,99.74Z"/><path d="M101.59,97.44h-5a85.87,85.87,0,0,1,28.6,31.05c.54-1,1-2,1.53-3.05A88.71,88.71,0,0,0,101.59,97.44Z"/><path d="M67.2,164.64A67.28,67.28,0,0,1,0,97.44,1.41,1.41,0,0,1,1.41,96H133a1.41,1.41,0,0,1,1.41,1.41A67.28,67.28,0,0,1,67.2,164.64ZM2.83,98.85a64.39,64.39,0,0,0,128.74,0Z"/><path d="M66.67,48.08l3-3.09,3,3.09a46.66,46.66,0,0,1,8.89,13.73A17.83,17.83,0,0,0,87.08,49V3.8C87.08,2.29,85,.94,82.94.94V36.1H76.73V1.73a2.21,2.21,0,0,0-4.32,0V36.1H66V1.73a2.21,2.21,0,0,0-4.32,0V36.1H55.48V.48c-1.27,0-4.14.69-4.14,3.11V49A17.82,17.82,0,0,0,57.5,62.48,46.56,46.56,0,0,1,66.67,48.08Z"/><path class="cls-1" d="M45.29,87.37c-25.59.89-43.88,3.24-43.88,6H49.59A27.54,27.54,0,0,1,45.29,87.37Z"/><path class="cls-1" d="M89.85,93.37h44.4c0-2.63-16.55-4.88-40.17-5.86A27.91,27.91,0,0,1,89.85,93.37Z"/><path class="cls-1" d="M83.22,93.37A23.31,23.31,0,0,0,92.9,76.69a12.77,12.77,0,0,0-12.88-2c0-.1,0-.2,0-.3,0-12.87-10.31-23.3-10.31-23.3S59.4,61.52,59.4,74.39c0,.07,0,.14,0,.21a12.57,12.57,0,0,0-12.89,1.84,23.29,23.29,0,0,0,9.69,16.92Z"/></g></g></svg>